<svg xmlns="http://www.w3.org/2000/svg" width="31.987" height="24.736" viewBox="0 0 31.987 24.736"><path d="M31.381,72.168a.375.375,0,0,1,.606.3V85.644a3.047,3.047,0,0,1-3,3.092H3a3.047,3.047,0,0,1-3-3.092V72.477a.373.373,0,0,1,.606-.3c1.4,1.121,3.255,2.544,9.627,7.318,1.318.992,3.542,3.079,5.76,3.066,2.23.019,4.5-2.113,5.766-3.066C28.132,74.719,29.981,73.289,31.381,72.168ZM15.993,80.491c1.449.026,3.536-1.881,4.586-2.667,8.29-6.2,8.921-6.744,10.833-8.29a1.559,1.559,0,0,0,.575-1.217V67.092a3.047,3.047,0,0,0-3-3.092H3a3.047,3.047,0,0,0-3,3.092v1.224a1.569,1.569,0,0,0,.575,1.217c1.912,1.54,2.543,2.087,10.833,8.29C12.457,78.61,14.544,80.516,15.993,80.491Z" transform="translate(0 -64)" fill="#767676"/></svg>