<svg xmlns="http://www.w3.org/2000/svg" width="34.695" height="30" viewBox="0 0 34.695 30"><path d="M34.679,71.049q-.232,5.065-7.078,13.87-7.074,9.2-11.973,9.2-3.032,0-5.134-5.6C7.768,78.514,6.606,72.652,4.352,72.652a10.808,10.808,0,0,0-2.726,1.634L0,72.179c4-3.508,7.814-7.411,10.207-7.628q4.054-.395,4.987,5.537C17.417,84.144,18.4,86.266,22.443,79.9q2.172-3.438,2.339-5.235c.372-3.555-2.772-3.315-4.9-2.4q2.556-8.375,9.773-8.139c3.547.093,5.227,2.408,5.026,6.923Z" transform="translate(0 -64.119)" fill="#767676"/></svg>